<svg width="42" height="37" viewBox="0 0 42 37" fill="none" xmlns="http://www.w3.org/2000/svg">
<g filter="url(#filter0_d_1_64)">
<path d="M1 0H33C37.4183 0 41 3.58172 41 8V35H13C6.37258 35 1 29.6274 1 23V0Z" fill="white"/>
</g>
<path d="M6.24133 26.2105L9.13905 8.75599H18.8805L18.7101 9.74463H10.0339L8.84076 16.9804H16.7072L16.5368 17.9691H8.6703L7.30667 26.2105H6.24133Z" fill="black"/>
<path d="M23.3976 26.2105H19.443L25.4686 8.75599H30.2243L36.2413 26.2105H32.2868L27.9146 12.7446H27.7783L23.3976 26.2105ZM23.1504 19.3497H32.4913V22.2304H23.1504V19.3497Z" fill="#33602C"/>
<path d="M12.4286 28.5789H35.2857V29.5789H13.4286C12.8763 29.5789 12.4286 29.1312 12.4286 28.5789Z" fill="#170000"/>
<defs>
<filter id="filter0_d_1_64" x="0" y="0" width="42" height="37" filterUnits="userSpaceOnUse" color-interpolation-filters="sRGB">
<feFlood flood-opacity="0" result="BackgroundImageFix"/>
<feColorMatrix in="SourceAlpha" type="matrix" values="0 0 0 0 0 0 0 0 0 0 0 0 0 0 0 0 0 0 127 0" result="hardAlpha"/>
<feOffset dy="1"/>
<feGaussianBlur stdDeviation="0.5"/>
<feComposite in2="hardAlpha" operator="out"/>
<feColorMatrix type="matrix" values="0 0 0 0 0.2 0 0 0 0 0.376471 0 0 0 0 0.172549 0 0 0 1 0"/>
<feBlend mode="normal" in2="BackgroundImageFix" result="effect1_dropShadow_1_64"/>
<feBlend mode="normal" in="SourceGraphic" in2="effect1_dropShadow_1_64" result="shape"/>
</filter>
</defs>
</svg>
