<svg width="163" height="37" viewBox="0 0 163 37" fill="none" xmlns="http://www.w3.org/2000/svg">
<g filter="url(#filter0_d_1_63)">
<path d="M1 0H144.5C150.851 0 156 5.14873 156 11.5V35H12.5C6.14872 35 1 29.8513 1 23.5V0Z" fill="white"/>
</g>
<path d="M7.43182 27L10.3295 9.54545H20.071L19.9006 10.5341H11.2244L10.0312 17.7699H17.8977L17.7273 18.7585H9.8608L8.49716 27H7.43182ZM21.179 27L23.3608 13.9091H24.392L22.2102 27H21.179ZM24.3665 11.5824C24.1222 11.5824 23.9176 11.5 23.7528 11.3352C23.5938 11.1648 23.5256 10.9574 23.5483 10.7131C23.5597 10.5085 23.6506 10.3295 23.821 10.1761C23.9915 10.0227 24.1875 9.94602 24.4091 9.94602C24.6534 9.94602 24.8551 10.0312 25.0142 10.2017C25.1733 10.3665 25.2443 10.5682 25.2273 10.8068C25.2102 11.017 25.1165 11.1989 24.946 11.3523C24.7813 11.5057 24.5881 11.5824 24.3665 11.5824ZM29.0114 18.5114L27.6051 27H26.5653L28.7472 13.9091H29.7614L29.4205 15.9801H29.5227C29.9318 15.304 30.5114 14.7614 31.2614 14.3523C32.0114 13.9432 32.8523 13.7386 33.7841 13.7386C34.6591 13.7386 35.4006 13.9261 36.0085 14.3011C36.6165 14.6761 37.0511 15.2102 37.3125 15.9034C37.5739 16.5909 37.625 17.4119 37.4659 18.3665L36.0256 27H34.9858L36.4176 18.4091C36.5994 17.2955 36.4233 16.4006 35.8892 15.7244C35.3608 15.0426 34.554 14.7017 33.4688 14.7017C32.7358 14.7017 32.054 14.8608 31.4233 15.179C30.7983 15.4972 30.2727 15.9432 29.8466 16.517C29.4205 17.0852 29.142 17.75 29.0114 18.5114ZM44.8125 27.2727C43.7557 27.2727 42.8835 26.983 42.196 26.4034C41.5085 25.8239 41.0341 25.0256 40.7727 24.0085C40.5114 22.9858 40.4886 21.8125 40.7045 20.4886C40.9261 19.1761 41.3381 18.0114 41.9403 16.9943C42.5426 15.9716 43.2841 15.1705 44.1648 14.5909C45.0455 14.0057 46.0085 13.7131 47.054 13.7131C47.804 13.7131 48.4318 13.858 48.9375 14.1477C49.4489 14.4318 49.8523 14.8097 50.1477 15.2812C50.4489 15.7528 50.6534 16.2699 50.7614 16.8324H50.8636L52.0739 9.54545H53.1051L50.2074 27H49.1932L49.6705 24.1449H49.5511C49.25 24.7074 48.8722 25.2273 48.4176 25.7045C47.9631 26.1761 47.4347 26.5568 46.8324 26.8466C46.2301 27.1307 45.5568 27.2727 44.8125 27.2727ZM44.9744 26.3097C45.8608 26.3097 46.6705 26.0568 47.4034 25.5511C48.1364 25.0398 48.75 24.3466 49.2443 23.4716C49.7386 22.5909 50.0795 21.5937 50.267 20.4801C50.4545 19.3665 50.4517 18.375 50.2585 17.5057C50.071 16.6307 49.7045 15.9432 49.1591 15.4432C48.6136 14.9375 47.8977 14.6847 47.0114 14.6847C46.1136 14.6847 45.3011 14.9403 44.5739 15.4517C43.8466 15.9574 43.2386 16.6477 42.75 17.5227C42.2614 18.3977 41.9261 19.3835 41.7443 20.4801C41.5625 21.5767 41.5597 22.5653 41.7358 23.446C41.9176 24.3267 42.2784 25.0256 42.8182 25.5426C43.358 26.054 44.0767 26.3097 44.9744 26.3097Z" fill="black"/>
<path d="M58.3381 27H54.3835L60.4091 9.54545H65.1648L71.1818 27H67.2273L62.8551 13.5341H62.7188L58.3381 27ZM58.0909 20.1392H67.4318V23.0199H58.0909V20.1392ZM77.429 27.2131C76.4347 27.2131 75.5341 26.9574 74.7273 26.446C73.9261 25.929 73.2898 25.1705 72.8182 24.1705C72.3523 23.1648 72.1193 21.9318 72.1193 20.4716C72.1193 18.9716 72.3608 17.7244 72.8438 16.7301C73.3267 15.7301 73.9688 14.983 74.7699 14.4886C75.5767 13.9886 76.4602 13.7386 77.4205 13.7386C78.1534 13.7386 78.7642 13.8636 79.2528 14.1136C79.7472 14.358 80.1449 14.6648 80.446 15.0341C80.7528 15.3977 80.9858 15.7557 81.1449 16.108H81.2557V9.54545H84.8778V27H81.2983V24.9034H81.1449C80.9744 25.267 80.733 25.6278 80.4205 25.9858C80.1136 26.3381 79.7131 26.6307 79.2188 26.8636C78.7301 27.0966 78.1335 27.2131 77.429 27.2131ZM78.5795 24.3239C79.1648 24.3239 79.6591 24.1648 80.0625 23.8466C80.4716 23.5227 80.7841 23.071 81 22.4915C81.2216 21.9119 81.3324 21.233 81.3324 20.4545C81.3324 19.6761 81.2244 19 81.0085 18.4261C80.7926 17.8523 80.4801 17.4091 80.071 17.0966C79.6619 16.7841 79.1648 16.6278 78.5795 16.6278C77.983 16.6278 77.4801 16.7898 77.071 17.1136C76.6619 17.4375 76.3523 17.8864 76.142 18.4602C75.9318 19.0341 75.8267 19.6989 75.8267 20.4545C75.8267 21.2159 75.9318 21.8892 76.142 22.4744C76.358 23.054 76.6676 23.5085 77.071 23.8381C77.4801 24.1619 77.983 24.3239 78.5795 24.3239ZM92.6868 27.2131C91.6925 27.2131 90.7919 26.9574 89.9851 26.446C89.1839 25.929 88.5476 25.1705 88.076 24.1705C87.6101 23.1648 87.3771 21.9318 87.3771 20.4716C87.3771 18.9716 87.6186 17.7244 88.1016 16.7301C88.5845 15.7301 89.2266 14.983 90.0277 14.4886C90.8345 13.9886 91.718 13.7386 92.6783 13.7386C93.4112 13.7386 94.022 13.8636 94.5107 14.1136C95.005 14.358 95.4027 14.6648 95.7038 15.0341C96.0107 15.3977 96.2436 15.7557 96.4027 16.108H96.5135V9.54545H100.136V27H96.5561V24.9034H96.4027C96.2322 25.267 95.9908 25.6278 95.6783 25.9858C95.3714 26.3381 94.9709 26.6307 94.4766 26.8636C93.9879 27.0966 93.3913 27.2131 92.6868 27.2131ZM93.8374 24.3239C94.4226 24.3239 94.9169 24.1648 95.3203 23.8466C95.7294 23.5227 96.0419 23.071 96.2578 22.4915C96.4794 21.9119 96.5902 21.233 96.5902 20.4545C96.5902 19.6761 96.4822 19 96.2663 18.4261C96.0504 17.8523 95.7379 17.4091 95.3288 17.0966C94.9197 16.7841 94.4226 16.6278 93.8374 16.6278C93.2408 16.6278 92.7379 16.7898 92.3288 17.1136C91.9197 17.4375 91.6101 17.8864 91.3999 18.4602C91.1896 19.0341 91.0845 19.6989 91.0845 20.4545C91.0845 21.2159 91.1896 21.8892 91.3999 22.4744C91.6158 23.054 91.9254 23.5085 92.3288 23.8381C92.7379 24.1619 93.2408 24.3239 93.8374 24.3239ZM103.121 27V13.9091H106.641V16.1932H106.777C107.016 15.3807 107.416 14.767 107.979 14.3523C108.541 13.9318 109.189 13.7216 109.922 13.7216C110.104 13.7216 110.3 13.733 110.51 13.7557C110.72 13.7784 110.905 13.8097 111.064 13.8494V17.071C110.893 17.0199 110.658 16.9744 110.357 16.9347C110.055 16.8949 109.78 16.875 109.53 16.875C108.996 16.875 108.518 16.9915 108.098 17.2244C107.683 17.4517 107.354 17.7699 107.109 18.179C106.871 18.5881 106.751 19.0597 106.751 19.5938V27H103.121ZM118.298 27.2557C116.951 27.2557 115.792 26.983 114.82 26.4375C113.854 25.8864 113.11 25.108 112.587 24.1023C112.065 23.0909 111.803 21.8949 111.803 20.5142C111.803 19.1676 112.065 17.9858 112.587 16.9688C113.11 15.9517 113.846 15.1591 114.795 14.5909C115.749 14.0227 116.869 13.7386 118.153 13.7386C119.016 13.7386 119.82 13.8778 120.565 14.1562C121.315 14.429 121.968 14.8409 122.525 15.392C123.087 15.9432 123.525 16.6364 123.837 17.4716C124.15 18.3011 124.306 19.2727 124.306 20.3864V21.3835H113.252V19.1335H120.888C120.888 18.6108 120.775 18.1477 120.548 17.7443C120.32 17.3409 120.005 17.0256 119.602 16.7983C119.204 16.5653 118.741 16.4489 118.212 16.4489C117.661 16.4489 117.173 16.5767 116.746 16.8324C116.326 17.0824 115.996 17.4205 115.758 17.8466C115.519 18.267 115.397 18.7358 115.391 19.2528V21.392C115.391 22.0398 115.511 22.5994 115.749 23.071C115.994 23.5426 116.337 23.9062 116.781 24.1619C117.224 24.4176 117.749 24.5455 118.357 24.5455C118.761 24.5455 119.13 24.4886 119.465 24.375C119.8 24.2614 120.087 24.0909 120.326 23.8636C120.565 23.6364 120.746 23.358 120.871 23.0284L124.229 23.25C124.059 24.0568 123.71 24.7614 123.181 25.3636C122.658 25.9602 121.982 26.4261 121.153 26.7614C120.329 27.0909 119.377 27.2557 118.298 27.2557ZM137.567 17.642L134.244 17.8466C134.187 17.5625 134.065 17.3068 133.877 17.0795C133.69 16.8466 133.442 16.6619 133.136 16.5256C132.835 16.3835 132.474 16.3125 132.053 16.3125C131.491 16.3125 131.016 16.4318 130.63 16.6705C130.244 16.9034 130.05 17.2159 130.05 17.608C130.05 17.9205 130.175 18.1847 130.425 18.4006C130.675 18.6165 131.104 18.7898 131.712 18.9205L134.082 19.3977C135.354 19.6591 136.303 20.0795 136.928 20.6591C137.553 21.2386 137.866 22 137.866 22.9432C137.866 23.8011 137.613 24.554 137.107 25.2017C136.607 25.8494 135.92 26.3551 135.045 26.7188C134.175 27.0767 133.173 27.2557 132.036 27.2557C130.303 27.2557 128.923 26.8949 127.894 26.1733C126.871 25.446 126.272 24.4574 126.096 23.2074L129.667 23.0199C129.775 23.5483 130.036 23.9517 130.451 24.2301C130.866 24.5028 131.397 24.6392 132.045 24.6392C132.681 24.6392 133.192 24.517 133.579 24.2727C133.971 24.0227 134.17 23.7017 134.175 23.3097C134.17 22.9801 134.031 22.7102 133.758 22.5C133.485 22.2841 133.065 22.1193 132.496 22.0057L130.229 21.554C128.951 21.2983 127.999 20.8551 127.374 20.2244C126.755 19.5937 126.445 18.7898 126.445 17.8125C126.445 16.9716 126.673 16.2472 127.127 15.6392C127.587 15.0312 128.232 14.5625 129.062 14.233C129.897 13.9034 130.874 13.7386 131.994 13.7386C133.647 13.7386 134.948 14.0881 135.897 14.7869C136.852 15.4858 137.408 16.4375 137.567 17.642ZM151.044 17.642L147.72 17.8466C147.663 17.5625 147.541 17.3068 147.354 17.0795C147.166 16.8466 146.919 16.6619 146.612 16.5256C146.311 16.3835 145.95 16.3125 145.53 16.3125C144.967 16.3125 144.493 16.4318 144.107 16.6705C143.72 16.9034 143.527 17.2159 143.527 17.608C143.527 17.9205 143.652 18.1847 143.902 18.4006C144.152 18.6165 144.581 18.7898 145.189 18.9205L147.558 19.3977C148.831 19.6591 149.78 20.0795 150.405 20.6591C151.03 21.2386 151.342 22 151.342 22.9432C151.342 23.8011 151.089 24.554 150.584 25.2017C150.084 25.8494 149.396 26.3551 148.521 26.7188C147.652 27.0767 146.649 27.2557 145.513 27.2557C143.78 27.2557 142.399 26.8949 141.371 26.1733C140.348 25.446 139.749 24.4574 139.572 23.2074L143.143 23.0199C143.251 23.5483 143.513 23.9517 143.928 24.2301C144.342 24.5028 144.874 24.6392 145.521 24.6392C146.158 24.6392 146.669 24.517 147.055 24.2727C147.447 24.0227 147.646 23.7017 147.652 23.3097C147.646 22.9801 147.507 22.7102 147.234 22.5C146.962 22.2841 146.541 22.1193 145.973 22.0057L143.706 21.554C142.428 21.2983 141.476 20.8551 140.851 20.2244C140.232 19.5937 139.922 18.7898 139.922 17.8125C139.922 16.9716 140.149 16.2472 140.604 15.6392C141.064 15.0312 141.709 14.5625 142.538 14.233C143.374 13.9034 144.351 13.7386 145.47 13.7386C147.124 13.7386 148.425 14.0881 149.374 14.7869C150.328 15.4858 150.885 16.4375 151.044 17.642Z" fill="#33602C"/>
<path d="M28 29H151V30H29C28.4477 30 28 29.5523 28 29Z" fill="#170000"/>
<defs>
<filter id="filter0_d_1_63" x="0" y="0" width="157" height="37" filterUnits="userSpaceOnUse" color-interpolation-filters="sRGB">
<feFlood flood-opacity="0" result="BackgroundImageFix"/>
<feColorMatrix in="SourceAlpha" type="matrix" values="0 0 0 0 0 0 0 0 0 0 0 0 0 0 0 0 0 0 127 0" result="hardAlpha"/>
<feOffset dy="1"/>
<feGaussianBlur stdDeviation="0.5"/>
<feComposite in2="hardAlpha" operator="out"/>
<feColorMatrix type="matrix" values="0 0 0 0 0.2 0 0 0 0 0.376471 0 0 0 0 0.172549 0 0 0 1 0"/>
<feBlend mode="normal" in2="BackgroundImageFix" result="effect1_dropShadow_1_63"/>
<feBlend mode="normal" in="SourceGraphic" in2="effect1_dropShadow_1_63" result="shape"/>
</filter>
</defs>
</svg>
